{"accessors":[{"bufferView":0,"componentType":5126,"count":40,"max":[0.10254892706871033,0.7205215692520142,0.10782629251480103],"min":[-0.10254892706871033,0.31847870349884033,-0.08723336458206177],"normalized":false,"type":"VEC3"},{"bufferView":1,"componentType":5126,"count":40,"max":[1.0,0.9800667762756348,9.627679537516087e-05,1.0],"min":[0.19859899580478668,-0.9800808429718018,-4.5778462663292885e-05,-1.0],"normalized":false,"type":"VEC4"},{"bufferView":2,"componentType":5126,"count":40,"max":[0.9338662624359131,1.0,0.7943786382675171],"min":[-0.9338616132736206,-0.5626606345176697,-0.9819121360778809],"normalized":false,"type":"VEC3"},{"bufferView":3,"componentType":5126,"count":40,"max":[0.9782535433769226,0.9441640973091125],"min":[0.0217464417219162,0.5099999904632568],"normalized":false,"type":"VEC2"},{"bufferView":4,"componentType":5121,"count":54,"max":[39],"min":[0],"normalized":false,"type":"SCALAR"}],"asset":{"generator":"Godot Engine v4.6.2.stable.official@71f334935c000924d403448e698df4441130df18","version":"2.0"},"bufferViews":[{"buffer":0,"byteLength":480,"byteStride":12,"target":34962},{"buffer":0,"byteLength":640,"byteOffset":480,"byteStride":16,"target":34962},{"buffer":0,"byteLength":480,"byteOffset":1120,"byteStride":12,"target":34962},{"buffer":0,"byteLength":320,"byteOffset":1600,"byteStride":8,"target":34962},{"buffer":0,"byteLength":54,"byteOffset":1920,"target":34963}],"buffers":[{"byteLength":1974,"uri":"antorcha_palo0.bin"}],"extensionsUsed":["GODOT_single_root"],"images":[{"name":"madera","uri":"textures%2Fmadera.png"}],"materials":[{"doubleSided":true,"name":"Material","pbrMetallicRoughness":{"baseColorFactor":[1.0,1.0,1.0,1.0],"baseColorTexture":{"index":0},"metallicFactor":0.0,"roughnessFactor":0.5}}],"meshes":[{"name":"antorcha_Cube","primitives":[{"attributes":{"NORMAL":2,"POSITION":0,"TANGENT":1,"TEXCOORD_0":3},"indices":4,"material":0,"mode":4}]}],"nodes":[{"children":[1],"name":"antorcha"},{"mesh":0,"name":"Cube"}],"samplers":[{"magFilter":9728,"minFilter":9986,"wrapS":10497,"wrapT":10497}],"scene":0,"scenes":[{"nodes":[0]}],"textures":[{"sampler":0,"source":0}]}