{"accessors":[{"bufferView":0,"componentType":5126,"count":875,"max":[0.4712814688682556,0.4722103178501129,0.4412282109260559],"min":[-0.4712810516357422,-0.0054551102221012115,-0.4552021622657776],"normalized":false,"type":"VEC3"},{"bufferView":1,"componentType":5126,"count":875,"max":[1.0,5.5324286222457886e-05,0.9510893225669861,1.0],"min":[-0.809027910232544,-3.4434080589562654e-05,-0.9510448575019836,1.0],"normalized":false,"type":"VEC4"},{"bufferView":2,"componentType":5126,"count":875,"max":[0.9510893821716309,-7.072748786640659e-08,0.809027910232544],"min":[-0.9510448575019836,-0.13026408851146698,-1.0],"normalized":false,"type":"VEC3"},{"bufferView":3,"componentType":5126,"count":875,"max":[0.9972884058952332,0.997539222240448],"min":[0.06642507761716843,-0.0024811215698719025],"normalized":false,"type":"VEC2"},{"bufferView":4,"componentType":5123,"count":1125,"max":[874],"min":[0],"normalized":false,"type":"SCALAR"},{"bufferView":5,"componentType":5126,"count":129,"max":[0.5,4.577706547159721e-10,0.5],"min":[-0.5,0.0,-0.5],"normalized":false,"type":"VEC3"},{"bufferView":6,"componentType":5126,"count":129,"max":[-1.7851591110229492e-05,2.753734588623047e-05,-1.0,1.0],"min":[-1.7851591110229492e-05,2.753734588623047e-05,-1.0,1.0],"normalized":false,"type":"VEC4"},{"bufferView":7,"componentType":5126,"count":129,"max":[7.367134094238281e-05,1.0,2.7567148208618164e-05],"min":[7.367134094238281e-05,1.0,2.7567148208618164e-05],"normalized":false,"type":"VEC3"},{"bufferView":8,"componentType":5126,"count":129,"max":[1.0,1.0],"min":[0.0,0.0],"normalized":false,"type":"VEC2"},{"bufferView":9,"componentType":5121,"count":531,"max":[128],"min":[0],"normalized":false,"type":"SCALAR"},{"bufferView":10,"componentType":5126,"count":33,"max":[1.0416666269302368],"min":[0.0],"normalized":false,"type":"SCALAR"},{"bufferView":11,"componentType":5126,"count":33,"max":[0.0,-0.06774061918258667,0.0],"min":[0.0,-0.6360353827476501,0.0],"normalized":false,"type":"VEC3"}],"animations":[{"channels":[{"sampler":0,"target":{"node":1,"path":"translation"}}],"name":"trampa_activada","samplers":[{"input":10,"interpolation":"LINEAR","output":11}]}],"asset":{"generator":"Godot Engine v4.6.2.stable.official@71f334935c000924d403448e698df4441130df18","version":"2.0"},"bufferViews":[{"buffer":0,"byteLength":10500,"byteStride":12,"target":34962},{"buffer":0,"byteLength":14000,"byteOffset":10500,"byteStride":16,"target":34962},{"buffer":0,"byteLength":10500,"byteOffset":24500,"byteStride":12,"target":34962},{"buffer":0,"byteLength":7000,"byteOffset":35000,"byteStride":8,"target":34962},{"buffer":0,"byteLength":2250,"byteOffset":42000,"target":34963},{"buffer":0,"byteLength":1548,"byteOffset":44252,"byteStride":12,"target":34962},{"buffer":0,"byteLength":2064,"byteOffset":45800,"byteStride":16,"target":34962},{"buffer":0,"byteLength":1548,"byteOffset":47864,"byteStride":12,"target":34962},{"buffer":0,"byteLength":1032,"byteOffset":49412,"byteStride":8,"target":34962},{"buffer":0,"byteLength":531,"byteOffset":50444,"target":34963},{"buffer":0,"byteLength":132,"byteOffset":50976},{"buffer":0,"byteLength":396,"byteOffset":51108}],"buffers":[{"byteLength":51504,"uri":"trampa_activa0.bin"}],"extensionsUsed":["GODOT_single_root"],"images":[{"uri":"textures%2F.png"},{"uri":"textures%2F.png"}],"materials":[{"doubleSided":true,"name":"Material_001","pbrMetallicRoughness":{"baseColorFactor":[1.0,1.0,1.0,1.0],"baseColorTexture":{"index":0},"metallicFactor":0.0,"roughnessFactor":1.0}},{"doubleSided":true,"name":"texturasuelotrampa","pbrMetallicRoughness":{"baseColorFactor":[1.0,1.0,1.0,1.0],"baseColorTexture":{"index":1},"metallicFactor":0.0,"roughnessFactor":1.0}}],"meshes":[{"name":"trampa_activa_Circle_001","primitives":[{"attributes":{"NORMAL":2,"POSITION":0,"TANGENT":1,"TEXCOORD_0":3},"indices":4,"material":0,"mode":4}]},{"name":"trampa_activa_Plane_003","primitives":[{"attributes":{"NORMAL":7,"POSITION":5,"TANGENT":6,"TEXCOORD_0":8},"indices":9,"material":1,"mode":4}]}],"nodes":[{"children":[1,2],"name":"trampa_activa"},{"mesh":0,"name":"Circle","translation":[0.0,-0.47362983226776123,0.0]},{"mesh":1,"name":"Plane"}],"samplers":[{"magFilter":9728,"minFilter":9986,"wrapS":10497,"wrapT":10497}],"scene":0,"scenes":[{"nodes":[0]}],"textures":[{"sampler":0,"source":0},{"sampler":0,"source":1}]}